{
   "accessors" : [
      {
         "bufferView" : 0,
         "byteOffset" : 0,
         "componentType" : 5123,
         "count" : 300792,
         "max" : [ 65533 ],
         "min" : [ 0 ],
         "name" : "buffer-0-group-0-mesh-0-indices",
         "type" : "SCALAR"
      },
      {
         "bufferView" : 2,
         "byteOffset" : 0,
         "componentType" : 5126,
         "count" : 65534,
         "max" : [ 3.563425064086914, 2.191344976425171, 1.61269998550415 ],
         "min" : [ -3.39460301399231, -0.00304200011305511, -1.61269998550415 ],
         "name" : "buffer-0-group-0-mesh-0-position",
         "type" : "VEC3"
      },
      {
         "bufferView" : 2,
         "byteOffset" : 786408,
         "componentType" : 5126,
         "count" : 65534,
         "max" : [ 1, 1, 1 ],
         "min" : [ -1, -1, -1 ],
         "name" : "buffer-0-group-0-mesh-0-normal",
         "type" : "VEC3"
      },
      {
         "bufferView" : 1,
         "byteOffset" : 0,
         "componentType" : 5126,
         "count" : 65534,
         "max" : [ 0.9987800121307373, 0 ],
         "min" : [ -0.0001449999981559813, -0.9996479749679565 ],
         "name" : "buffer-0-group-0-mesh-0-texcoord",
         "type" : "VEC2"
      },
      {
         "bufferView" : 0,
         "byteOffset" : 601584,
         "componentType" : 5123,
         "count" : 88008,
         "max" : [ 25851 ],
         "min" : [ 0 ],
         "name" : "buffer-0-group-0-mesh-1-indices",
         "type" : "SCALAR"
      },
      {
         "bufferView" : 2,
         "byteOffset" : 1572816,
         "componentType" : 5126,
         "count" : 25852,
         "max" : [ 3.563425064086914, 2.191344976425171, 1.823166012763977 ],
         "min" : [ -3.39460301399231, -0.01129900012165308, -1.823166012763977 ],
         "name" : "buffer-0-group-0-mesh-1-position",
         "type" : "VEC3"
      },
      {
         "bufferView" : 2,
         "byteOffset" : 1883040,
         "componentType" : 5126,
         "count" : 25852,
         "max" : [ 1, 1, 1 ],
         "min" : [ -1, -1, -1 ],
         "name" : "buffer-0-group-0-mesh-1-normal",
         "type" : "VEC3"
      },
      {
         "bufferView" : 1,
         "byteOffset" : 524272,
         "componentType" : 5126,
         "count" : 25852,
         "max" : [ 0.9987800121307373, 0 ],
         "min" : [ -0.0001449999981559813, -0.9996479749679565 ],
         "name" : "buffer-0-group-0-mesh-1-texcoord",
         "type" : "VEC2"
      },
      {
         "bufferView" : 0,
         "byteOffset" : 777600,
         "componentType" : 5123,
         "count" : 3072,
         "max" : [ 573 ],
         "min" : [ 0 ],
         "name" : "buffer-0-group-1-mesh-0-indices",
         "type" : "SCALAR"
      },
      {
         "bufferView" : 2,
         "byteOffset" : 2193264,
         "componentType" : 5126,
         "count" : 574,
         "max" : [ 0.4084230065345764, 1.923987030982971, 0.7436969876289368 ],
         "min" : [ -2.607635021209717, 0, -0.7585110068321228 ],
         "name" : "buffer-0-group-1-mesh-0-position",
         "type" : "VEC3"
      },
      {
         "bufferView" : 2,
         "byteOffset" : 2200152,
         "componentType" : 5126,
         "count" : 574,
         "max" : [ 0.4510000050067902, 0.9998000264167786, 0.9380000233650208 ],
         "min" : [ -0.4691999852657318, -0.9998000264167786, -0.9380000233650208 ],
         "name" : "buffer-0-group-1-mesh-0-normal",
         "type" : "VEC3"
      },
      {
         "bufferView" : 1,
         "byteOffset" : 731088,
         "componentType" : 5126,
         "count" : 574,
         "max" : [ 0, 0 ],
         "min" : [ 0, 0 ],
         "name" : "buffer-0-group-1-mesh-0-texcoord",
         "type" : "VEC2"
      }
   ],
   "asset" : {
      "generator" : "Obj2GltfConverter",
      "version" : "2.0"
   },
   "bufferViews" : [
      {
         "buffer" : 0,
         "byteLength" : 783744,
         "byteOffset" : 0,
         "byteStride" : 0,
         "name" : "buffer-0-bufferview-ushort",
         "target" : 34963
      },
      {
         "buffer" : 0,
         "byteLength" : 735680,
         "byteOffset" : 783744,
         "byteStride" : 8,
         "name" : "buffer-0-bufferview-vec2",
         "target" : 34962
      },
      {
         "buffer" : 0,
         "byteLength" : 2207040,
         "byteOffset" : 1519428,
         "byteStride" : 12,
         "name" : "buffer-0-bufferview-vec3",
         "target" : 34962
      },
      {
         "buffer" : 0,
         "byteLength" : 1,
         "byteOffset" : 0,
         "name" : "buffer-0-bufferview-vec4"
      }
   ],
   "buffers" : [
      {
         "byteLength" : 3726468,
         "name" : "buffer-0",
         "uri" : "Future-Car.bin"
      }
   ],
   "images" : [
      {
         "mimeType" : "image/jpeg",
         "name" : "Future_Car-diffuse-image",
         "uri" : "Future Car Test/Future-Car.jpg"
      },
      {
         "mimeType" : "image/jpeg",
         "name" : "glass-diffuse-image",
         "uri" : "Future Car Test/Future-Car.jpg"
      }
   ],
   "materials" : [
      {
         "alphaMode" : "OPAQUE",
         "doubleSided" : true,
         "name" : "Future_Car",
         "pbrMetallicRoughness" : {
            "baseColorFactor" : [ 0.64, 0.64, 0.64, 1 ],
            "baseColorTexture" : {
               "index" : 0,
               "texCoord" : 0
            },
            "metallicFactor" : 0,
            "roughnessFactor" : 0.7448017359246658
         }
      },
      {
         "alphaMode" : "BLEND",
         "doubleSided" : true,
         "name" : "glass",
         "pbrMetallicRoughness" : {
            "baseColorFactor" : [ 1, 1, 1, 0.134796 ],
            "baseColorTexture" : {
               "index" : 1,
               "texCoord" : 0
            },
            "metallicFactor" : 0,
            "roughnessFactor" : 0.06805892474990537
         }
      }
   ],
   "meshes" : [
      {
         "name" : "buffer-0-mesh-0",
         "primitives" : [
            {
               "attributes" : {
                  "NORMAL" : 2,
                  "POSITION" : 1,
                  "TEXCOORD_0" : 3
               },
               "indices" : 0,
               "material" : 0,
               "mode" : 4
            },
            {
               "attributes" : {
                  "NORMAL" : 6,
                  "POSITION" : 5,
                  "TEXCOORD_0" : 7
               },
               "indices" : 4,
               "material" : 0,
               "mode" : 4
            },
            {
               "attributes" : {
                  "NORMAL" : 10,
                  "POSITION" : 9,
                  "TEXCOORD_0" : 11
               },
               "indices" : 8,
               "material" : 1,
               "mode" : 4
            }
         ]
      }
   ],
   "nodes" : [
      {
         "mesh" : 0,
         "name" : "node-0"
      }
   ],
   "samplers" : [
      {
         "name" : "Future_Car-diffuse-sampler",
         "wrapS" : 10497,
         "wrapT" : 10497
      },
      {
         "name" : "glass-diffuse-sampler",
         "wrapS" : 10497,
         "wrapT" : 10497
      }
   ],
   "scenes" : [
      {
         "name" : "scene-0",
         "nodes" : [ 0 ]
      }
   ],
   "textures" : [
      {
         "name" : "Future_Car-diffuse-texture",
         "sampler" : 0,
         "source" : 0
      },
      {
         "name" : "glass-diffuse-texture",
         "sampler" : 1,
         "source" : 1
      }
   ]
}
